<svg id="svg" version="1.1" xmlns="http://www.w3.org/2000/svg" xmlns:xlink="http://www.w3.org/1999/xlink" width="400" height="807.2272411396802" viewBox="0, 0, 400,807.2272411396802"><g id="svgg"><path id="path0" d="M135.769 207.822 C 136.334 213.886,137.444 216.394,141.588 220.972 C 150.261 230.553,151.260 234.517,146.484 240.409 C 144.849 242.425,143.437 242.996,140.784 242.712 L 138.628 242.481 137.018 244.241 C 136.132 245.208,134.389 247.042,133.143 248.316 C 129.838 251.697,129.699 253.293,132.374 257.201 C 134.346 260.081,134.310 260.969,132.082 264.290 C 131.228 265.562,130.530 266.877,130.530 267.212 C 130.530 268.390,129.531 269.726,126.830 272.161 C 123.302 275.341,123.289 275.834,126.681 277.611 C 128.155 278.384,130.580 280.219,133.073 282.449 C 138.348 287.168,138.536 287.254,141.562 286.335 C 144.725 285.374,146.187 285.430,149.201 286.627 C 150.598 287.183,151.916 287.637,152.129 287.637 C 152.809 287.637,157.940 290.249,158.517 290.889 C 159.844 292.361,159.665 293.155,157.474 295.510 C 156.347 296.721,155.425 297.933,155.425 298.203 C 155.425 299.810,148.397 308.520,145.482 310.526 C 144.576 311.149,143.903 311.934,143.671 312.638 C 142.758 315.404,140.257 316.798,137.231 316.227 C 132.129 315.264,133.824 318.286,142.304 325.271 C 145.745 328.105,146.478 330.542,145.108 334.591 C 143.559 339.169,140.744 341.079,138.024 339.398 C 136.952 338.736,136.714 338.711,135.027 339.089 C 134.011 339.316,132.595 339.398,131.850 339.272 L 130.507 339.046 131.355 340.294 C 134.393 344.771,132.971 347.967,126.058 352.206 C 119.822 356.029,118.917 357.372,119.018 362.658 C 119.055 364.601,118.909 367.129,118.693 368.276 C 118.345 370.133,118.373 370.520,118.949 371.800 C 119.719 373.512,119.848 380.767,119.161 383.784 C 118.938 384.765,118.755 387.235,118.755 389.274 L 118.755 392.981 121.362 395.454 C 122.796 396.814,124.802 398.485,125.820 399.167 C 126.838 399.848,128.276 400.992,129.016 401.707 C 129.756 402.423,131.529 403.929,132.956 405.053 C 137.339 408.509,139.943 412.009,141.667 416.765 C 141.921 417.467,142.745 418.382,143.869 419.213 C 146.156 420.903,146.526 421.491,147.345 424.748 C 147.714 426.217,148.715 428.780,149.570 430.446 C 150.424 432.111,151.921 435.030,152.895 436.932 C 155.741 442.489,155.940 442.583,159.294 439.950 C 160.993 438.616,161.734 437.758,162.322 436.445 C 163.624 433.539,164.947 433.179,171.909 433.839 C 176.749 434.297,184.376 439.898,208.915 461.018 C 215.405 466.603,219.991 469.550,221.574 469.153 C 222.116 469.017,222.984 467.998,224.247 466.015 C 225.570 463.938,227.378 461.846,230.420 458.873 C 233.092 456.261,236.233 452.700,238.711 449.473 C 245.907 440.102,247.475 438.787,250.969 439.193 C 253.669 439.506,254.050 438.918,254.264 434.103 C 254.453 429.869,255.033 428.693,257.285 427.975 C 258.574 427.564,258.705 427.420,258.705 426.418 C 258.705 425.158,259.040 424.809,260.796 424.243 C 262.281 423.765,263.751 422.146,263.751 420.989 C 263.751 418.397,264.841 417.532,268.966 416.851 C 276.926 415.537,276.020 416.049,275.529 413.142 L 275.128 410.765 273.708 410.765 C 269.125 410.765,268.953 403.834,273.312 394.786 C 275.395 390.462,277.360 387.704,279.404 386.236 C 280.708 385.300,280.864 385.045,280.848 383.878 C 280.771 378.290,292.069 369.506,294.297 373.421 C 295.087 374.810,296.384 374.100,296.384 372.279 C 296.384 371.918,296.936 370.820,297.611 369.839 L 298.839 368.056 298.243 365.298 C 297.915 363.780,297.363 362.074,297.017 361.505 C 295.748 359.424,296.224 357.657,298.648 355.450 C 299.476 354.697,300.551 353.399,301.038 352.566 C 301.525 351.733,303.197 349.689,304.754 348.024 C 311.219 341.111,309.830 337.432,301.262 338.773 C 299.694 339.018,298.235 339.457,297.768 339.824 C 296.732 340.637,295.680 340.623,294.610 339.781 C 293.443 338.864,293.407 338.889,293.290 340.706 L 293.188 342.304 291.595 342.407 C 285.216 342.817,281.912 332.526,282.349 313.606 C 282.537 305.462,282.760 304.131,285.935 292.178 C 287.731 285.414,288.462 283.325,290.172 280.067 C 290.755 278.957,292.303 276.005,293.612 273.507 C 294.920 271.009,296.479 267.527,297.075 265.770 C 300.315 256.220,305.705 246.746,317.527 229.818 C 320.452 225.630,324.408 219.933,326.319 217.157 C 328.229 214.382,330.905 210.635,332.264 208.831 L 334.736 205.551 235.147 205.551 L 135.557 205.551 135.769 207.822 M111.661 333.978 C 110.857 335.223,110.545 335.368,107.438 335.942 C 104.220 336.536,100.662 342.016,99.593 348.024 C 97.946 357.277,95.504 359.165,82.422 361.295 C 73.642 362.725,70.383 364.447,69.345 368.207 C 68.806 370.161,69.420 372.170,70.940 373.418 C 71.612 373.969,72.407 374.631,72.707 374.888 C 73.007 375.145,73.504 376.486,73.812 377.869 C 74.493 380.932,75.352 381.872,78.217 382.690 C 84.047 384.354,90.476 389.044,92.032 392.767 C 92.308 393.428,92.764 393.944,93.071 393.944 C 93.371 393.944,95.119 394.408,96.954 394.974 C 102.447 396.669,102.867 396.353,104.335 389.414 C 105.441 384.185,105.940 383.077,108.357 380.488 C 109.307 379.470,110.480 378.108,110.963 377.460 C 111.447 376.812,113.020 375.024,114.458 373.485 C 115.896 371.946,117.104 370.356,117.142 369.952 C 117.181 369.548,117.218 367.174,117.227 364.676 C 117.251 357.114,117.910 355.992,125.153 351.175 C 131.901 346.687,132.193 346.061,129.723 341.377 C 128.909 339.834,128.064 337.973,127.845 337.242 L 127.447 335.913 125.656 336.026 C 124.671 336.088,122.316 335.823,120.422 335.437 C 118.529 335.051,116.552 334.735,116.029 334.735 C 115.452 334.735,114.626 334.338,113.929 333.726 C 112.508 332.479,112.639 332.464,111.661 333.978 M11.302 335.125 C 11.212 335.558,11.044 336.669,10.929 337.595 C 10.210 343.358,8.100 351.497,6.917 353.070 C 6.499 353.625,5.435 355.366,4.552 356.939 C 3.669 358.511,2.565 360.308,2.099 360.931 C 0.998 362.402,1.184 366.053,2.589 370.563 C 3.540 373.616,3.662 375.781,3.278 382.843 L 3.196 384.357 5.644 384.575 C 8.478 384.828,9.157 385.231,8.889 386.498 L 8.701 387.384 9.305 386.461 C 10.038 385.341,11.884 384.407,12.793 384.696 C 15.028 385.405,16.928 390.760,15.641 392.724 C 15.174 393.436,15.191 393.551,15.843 394.141 C 17.956 396.053,17.978 397.829,15.918 400.031 C 14.400 401.654,14.357 401.755,14.741 402.816 C 15.433 404.730,15.247 406.021,14.130 407.065 C 12.827 408.281,12.798 408.223,15.055 408.892 C 17.477 409.609,21.805 411.466,25.695 413.456 L 28.683 414.984 29.732 413.962 C 30.310 413.399,31.126 412.715,31.547 412.441 C 32.245 411.986,32.276 411.850,31.899 410.863 C 30.864 408.157,33.655 405.881,42.494 402.222 C 44.502 401.391,45.731 401.064,46.354 401.195 C 48.932 401.739,48.720 401.872,48.671 399.739 C 48.618 397.442,49.602 395.473,51.790 393.497 C 53.478 391.971,53.478 391.838,51.796 391.080 C 49.905 390.227,48.108 388.163,48.108 386.846 C 48.108 384.949,51.049 383.063,53.149 383.612 C 53.936 383.818,59.567 378.131,60.811 375.876 L 61.571 374.496 58.430 371.794 C 52.342 366.557,47.855 361.276,45.123 356.134 C 43.551 353.175,43.745 352.130,46.444 349.011 C 49.966 344.943,49.556 344.571,39.750 342.943 C 32.804 341.790,23.103 338.855,12.041 334.561 C 11.618 334.396,11.423 334.546,11.302 335.125 M114.973 374.919 C 113.382 376.650,112.483 377.978,111.964 379.359 C 110.905 382.179,110.419 382.814,108.690 383.635 C 106.786 384.539,106.462 385.202,105.769 389.605 C 104.457 397.943,103.321 398.856,97.155 396.525 C 93.198 395.029,92.965 395.017,92.681 396.307 C 92.558 396.867,92.073 397.782,91.603 398.340 C 91.133 398.899,90.806 399.387,90.875 399.425 C 90.944 399.464,91.304 399.662,91.674 399.866 C 93.069 400.635,92.549 402.691,90.960 402.691 C 90.424 402.691,90.158 402.886,90.155 403.280 C 90.153 403.604,90.058 404.213,89.946 404.634 C 89.746 405.380,89.786 405.393,91.626 405.177 C 94.193 404.875,95.766 406.325,96.861 410.002 C 97.841 413.292,97.845 413.291,100.449 408.879 C 105.453 400.401,110.355 398.715,118.364 402.717 C 124.647 405.857,125.886 408.820,125.321 419.355 L 125.050 424.412 126.913 428.606 C 130.025 435.614,130.038 435.671,129.938 442.381 L 129.850 448.260 131.620 451.769 C 133.878 456.246,133.975 458.599,132.169 465.097 C 131.368 467.978,131.036 469.900,131.009 471.808 C 130.981 473.778,130.839 474.566,130.471 474.798 C 129.475 475.427,108.999 470.818,108.999 469.965 C 108.999 468.990,106.575 466.708,105.125 466.318 C 104.382 466.118,103.068 465.506,102.204 464.959 C 100.924 464.147,100.566 464.046,100.261 464.413 C 99.678 465.116,96.739 466.393,92.515 467.780 C 90.387 468.479,88.325 469.342,87.933 469.698 C 87.541 470.054,86.188 470.706,84.927 471.147 C 83.170 471.761,82.520 472.170,82.151 472.896 C 81.460 474.256,80.152 475.569,78.316 476.747 C 76.509 477.907,76.099 478.837,75.812 482.422 C 75.553 485.665,71.157 494.449,67.963 498.104 C 67.460 498.680,66.557 500.345,65.956 501.805 C 63.506 507.760,62.737 508.688,58.200 511.176 C 53.008 514.024,52.995 514.072,56.672 516.727 C 62.805 521.154,63.090 522.726,58.665 527.705 C 53.539 533.474,52.629 535.739,55.034 536.744 C 58.718 538.283,61.702 542.338,61.480 545.500 C 61.349 547.353,61.423 547.627,62.376 548.836 C 65.511 552.810,66.164 553.045,69.479 551.398 C 72.371 549.961,73.765 550.030,75.312 551.689 C 75.985 552.409,76.880 553.102,77.303 553.229 C 78.123 553.474,82.493 556.851,83.582 558.080 C 84.868 559.533,82.862 565.447,80.611 566.839 C 79.937 567.256,78.922 568.269,78.357 569.091 C 77.792 569.912,76.726 570.965,75.990 571.430 C 75.227 571.912,74.074 573.168,73.310 574.349 C 72.105 576.215,71.602 577.549,70.334 582.251 C 70.123 583.035,69.276 584.625,68.452 585.783 C 64.658 591.116,64.495 591.405,64.336 593.062 C 64.238 594.074,64.450 595.851,64.890 597.726 C 65.293 599.444,65.603 601.903,65.606 603.406 C 65.608 605.119,65.852 606.827,66.294 608.238 C 66.770 609.757,67.032 611.753,67.155 614.798 C 67.469 622.612,68.677 627.554,71.777 633.719 C 73.994 638.128,73.846 640.228,70.901 646.087 C 67.169 653.513,65.391 655.191,58.248 658.029 C 54.825 659.389,53.880 660.154,51.891 663.173 C 50.024 666.007,49.534 666.248,43.486 667.312 C 32.564 669.235,31.067 671.045,38.183 673.720 C 43.950 675.887,44.846 676.859,44.962 681.075 C 45.003 682.554,45.146 684.295,45.281 684.943 C 45.626 686.602,45.497 687.160,44.405 688.757 C 43.524 690.043,43.425 690.496,43.220 694.211 L 42.995 698.261 45.091 700.574 C 47.852 703.621,48.857 705.842,49.050 709.329 C 49.241 712.759,49.471 713.203,51.063 713.210 C 56.029 713.233,63.308 716.756,64.920 719.917 C 66.625 723.258,65.041 727.101,60.254 731.233 C 55.302 735.509,54.624 736.772,55.823 739.486 C 56.181 740.296,56.579 741.756,56.708 742.730 C 56.940 744.482,56.963 744.511,58.978 745.589 C 60.925 746.631,61.089 746.823,62.783 750.042 C 67.810 759.596,67.807 761.586,62.767 764.837 C 60.151 766.526,58.171 768.488,57.201 770.354 C 56.972 770.793,56.676 772.761,56.543 774.727 C 56.255 778.988,54.418 782.506,52.481 782.506 C 52.309 782.506,51.717 783.950,51.166 785.713 C 50.615 787.477,49.791 789.862,49.335 791.012 C 47.501 795.642,47.033 801.951,48.558 801.487 C 49.354 801.245,49.530 801.118,51.931 799.063 C 53.900 797.376,55.136 797.095,58.318 797.611 C 63.485 798.450,64.929 799.783,64.929 803.716 C 64.929 806.646,65.165 806.675,67.992 804.084 C 70.516 801.771,73.560 799.751,78.217 797.296 C 89.764 791.211,91.415 789.302,92.179 781.150 C 92.392 778.882,92.785 777.449,94.011 774.475 C 95.115 771.796,95.627 770.030,95.762 768.439 C 96.209 763.143,98.186 758.622,102.820 752.293 C 103.319 751.611,103.341 751.254,102.998 749.394 C 102.205 745.088,102.582 743.048,104.648 740.476 C 105.682 739.190,105.710 739.073,105.481 736.940 C 105.277 735.036,105.341 734.578,105.945 733.601 C 106.329 732.978,106.644 731.938,106.644 731.289 C 106.644 728.985,107.071 728.004,109.049 725.763 C 110.141 724.526,111.122 723.125,111.228 722.649 C 111.861 719.816,112.200 719.057,113.428 717.724 C 114.176 716.914,116.324 715.302,118.201 714.143 C 121.900 711.859,124.138 710.033,124.138 709.297 C 124.138 705.645,133.320 703.408,141.433 705.083 C 149.395 706.727,150.511 708.664,148.355 717.093 C 147.214 721.556,147.241 721.634,150.978 724.519 C 154.045 726.886,155.065 727.334,157.389 727.334 C 158.744 727.334,160.807 728.174,160.807 728.726 C 160.807 729.915,166.956 729.519,169.582 728.160 C 173.221 726.279,180.509 719.355,180.752 717.551 C 180.972 715.906,181.732 714.990,183.444 714.304 C 186.758 712.977,186.440 710.320,182.506 706.476 C 177.352 701.441,177.949 697.958,185.281 690.284 C 189.980 685.366,192.832 684.131,194.114 686.459 C 194.903 687.892,196.175 688.542,197.370 688.123 C 199.044 687.537,198.785 686.348,196.063 682.117 C 194.450 679.612,194.359 677.380,195.802 675.737 C 196.403 675.053,196.836 674.450,196.765 674.396 C 194.685 672.821,194.392 672.723,193.434 673.289 C 192.103 674.075,191.270 673.981,190.003 672.902 C 189.396 672.384,187.887 671.471,186.650 670.874 C 184.795 669.977,184.219 669.490,183.357 668.089 C 182.783 667.155,181.389 665.180,180.261 663.700 C 177.893 660.597,178.339 660.658,173.422 662.759 C 168.848 664.713,168.633 664.671,165.154 661.143 C 161.546 657.482,160.658 655.877,160.907 653.463 L 161.087 651.717 159.745 651.111 C 153.686 648.379,150.686 634.995,153.340 622.540 C 153.734 620.690,154.293 617.738,154.581 615.980 C 156.023 607.194,156.758 605.006,160.699 597.769 C 161.125 596.986,161.522 595.485,161.648 594.175 C 162.084 589.642,162.450 588.311,163.794 586.387 C 165.431 584.042,166.489 581.945,168.201 577.647 C 171.990 568.137,176.280 562.771,185.772 555.672 C 194.858 548.875,197.205 543.735,199.324 525.988 C 200.849 513.212,203.913 503.326,210.479 489.992 C 211.937 487.031,213.876 482.872,214.787 480.750 C 215.699 478.627,217.230 475.718,218.189 474.284 L 219.934 471.678 210.808 464.815 C 205.789 461.040,197.140 454.509,191.590 450.300 C 166.991 431.651,169.809 432.716,162.273 439.220 C 156.517 444.188,153.678 444.741,152.575 441.108 C 152.446 440.682,151.155 438.846,149.707 437.028 C 144.831 430.908,144.337 429.739,145.171 426.306 C 145.976 422.995,145.831 422.477,143.923 421.867 C 141.494 421.090,140.699 420.287,139.760 417.662 C 137.946 412.590,130.439 403.981,124.042 399.632 C 118.343 395.759,117.410 394.708,117.410 392.165 C 117.410 391.218,117.167 390.104,116.839 389.550 C 116.295 388.630,116.302 388.483,116.985 386.470 C 118.596 381.718,118.964 372.931,117.569 372.540 C 117.389 372.490,116.220 373.560,114.973 374.919 " stroke="none" fill="#e4e4e4" fill-rule="evenodd"></path><path id="path1" d="M304.785 1.430 C 304.263 2.579,304.134 3.638,304.128 6.829 C 304.121 10.843,303.664 12.735,302.683 12.819 C 301.081 12.958,299.542 12.631,292.178 10.589 C 285.486 8.733,284.540 8.828,282.716 11.539 C 277.803 18.841,278.156 26.455,283.541 29.338 C 285.180 30.216,285.397 31.191,284.943 35.626 C 284.497 39.984,284.729 43.319,285.654 45.851 C 286.004 46.810,286.291 47.795,286.291 48.040 C 286.291 48.286,286.669 49.315,287.132 50.326 C 287.595 51.337,287.973 52.355,287.973 52.587 C 287.973 52.819,288.287 53.903,288.671 54.996 C 289.553 57.506,289.386 58.616,287.538 62.503 C 286.946 63.748,283.728 67.133,281.827 68.510 C 280.859 69.211,279.992 69.873,279.899 69.982 C 279.267 70.724,271.898 73.675,270.678 73.675 C 270.388 73.675,269.202 74.035,268.044 74.474 C 257.173 78.598,254.581 79.127,242.389 79.711 C 238.318 79.906,234.382 80.235,233.642 80.442 C 231.791 80.960,226.720 80.475,221.194 79.254 C 214.058 77.676,210.479 80.063,209.568 87.008 C 208.407 95.863,201.468 99.266,189.066 97.063 C 187.309 96.751,184.871 96.363,183.649 96.202 C 182.427 96.041,180.081 95.598,178.434 95.218 C 176.788 94.838,173.701 94.131,171.573 93.647 C 169.445 93.163,166.871 92.472,165.854 92.110 C 164.836 91.748,163.701 91.375,163.331 91.280 C 162.126 90.971,158.544 89.161,158.115 88.645 C 157.885 88.368,157.572 88.141,157.419 88.141 C 157.267 88.141,156.717 87.745,156.199 87.261 C 154.446 85.623,151.256 83.708,149.214 83.068 C 143.714 81.343,141.443 83.350,140.810 90.496 C 140.703 91.699,140.449 92.739,140.245 92.808 C 139.198 93.160,138.417 94.738,137.870 97.610 C 137.551 99.280,136.980 101.173,136.601 101.815 C 136.222 102.457,135.909 103.238,135.905 103.552 C 135.901 103.865,135.602 104.500,135.240 104.962 C 134.878 105.425,134.578 105.977,134.574 106.190 C 134.551 107.414,132.147 108.999,130.316 108.999 C 128.673 108.999,125.867 109.707,121.447 111.238 C 120.614 111.526,119.352 111.901,118.641 112.071 C 117.931 112.241,116.764 112.679,116.047 113.045 C 115.331 113.410,114.512 113.709,114.227 113.709 C 113.942 113.709,113.709 113.836,113.709 113.991 C 113.709 114.147,113.368 114.429,112.952 114.619 C 111.651 115.214,109.380 117.290,107.556 119.554 C 106.592 120.751,104.706 123.010,103.364 124.573 C 102.023 126.137,100.925 127.587,100.925 127.796 C 100.925 128.004,100.785 128.175,100.613 128.175 C 100.092 128.175,98.570 131.757,98.570 132.983 C 98.570 135.706,101.807 136.923,103.905 134.987 C 104.818 134.145,107.317 130.704,107.317 130.289 C 107.317 130.193,107.900 129.565,108.612 128.893 C 110.005 127.577,111.237 125.154,111.570 123.076 C 111.868 121.213,112.843 121.347,115.935 123.674 C 119.355 126.248,120.381 126.158,130.751 122.375 C 134.992 120.829,137.175 122.115,137.528 126.367 C 137.663 127.997,137.867 128.422,139.256 129.961 C 141.916 132.911,142.990 136.821,142.451 141.591 C 141.936 146.141,139.373 146.685,133.558 143.476 C 130.597 141.842,129.731 143.106,129.579 149.285 C 129.518 151.737,129.340 153.743,129.182 153.743 C 129.025 153.743,128.696 153.932,128.451 154.163 C 126.613 155.902,125.555 156.408,124.431 156.085 C 121.024 155.108,118.110 156.327,119.805 158.022 C 121.131 159.348,119.556 162.739,117.073 163.903 C 115.657 164.567,113.373 165.203,113.373 164.933 C 113.373 164.231,111.911 166.277,111.300 167.834 C 110.658 169.473,110.552 170.439,110.502 175.153 C 110.450 180.063,110.375 180.695,109.722 181.753 C 108.782 183.273,108.803 183.479,110.052 185.033 L 111.104 186.343 109.883 188.042 C 108.278 190.276,108.234 191.264,109.756 190.898 C 115.301 189.564,129.521 193.421,129.521 196.258 C 129.521 196.365,130.356 197.326,131.378 198.394 C 133.170 200.269,133.720 201.399,133.958 203.701 L 134.062 204.710 235.660 204.878 L 337.258 205.046 340.706 201.526 C 342.603 199.590,344.155 197.961,344.155 197.907 C 344.155 197.791,347.843 193.913,350.749 190.974 C 353.633 188.058,355.413 186.519,357.763 184.909 C 358.882 184.143,359.874 183.417,359.966 183.296 C 360.391 182.740,364.329 181.665,365.940 181.665 C 369.943 181.665,371.514 179.914,373.637 173.087 C 374.984 168.758,374.987 161.858,373.644 157.209 C 372.618 153.657,372.537 151.947,373.273 149.358 C 373.561 148.347,373.994 146.762,374.235 145.837 C 374.668 144.175,375.591 141.728,376.773 139.108 C 377.107 138.368,377.789 135.946,378.289 133.726 C 379.598 127.914,381.027 125.486,383.457 124.948 C 383.952 124.839,385.341 124.479,386.543 124.149 C 390.771 122.988,395.905 121.783,396.627 121.783 C 398.009 121.783,398.204 121.158,398.412 116.056 C 398.523 113.355,398.846 110.317,399.138 109.235 C 399.803 106.768,399.813 105.635,399.170 105.635 C 398.738 105.635,397.333 104.363,396.047 102.807 C 395.815 102.527,394.656 100.357,393.471 97.985 C 390.064 91.165,387.897 91.488,385.312 99.202 C 385.026 100.057,384.580 100.996,384.322 101.288 C 384.063 101.580,383.852 101.927,383.852 102.059 C 383.852 102.191,383.585 102.585,383.259 102.935 C 382.649 103.590,382.263 104.756,381.305 108.831 C 381.001 110.126,380.535 111.413,380.270 111.690 C 379.550 112.444,373.832 112.242,371.032 111.364 C 369.849 110.993,368.681 110.688,368.437 110.686 C 367.759 110.679,360.566 107.024,359.776 106.285 C 359.394 105.928,358.902 105.635,358.683 105.635 C 358.464 105.635,358.284 105.516,358.284 105.371 C 358.284 105.226,357.861 104.857,357.343 104.551 C 356.000 103.758,351.251 99.099,349.360 96.720 C 348.478 95.610,347.665 94.626,347.553 94.533 C 347.442 94.441,347.199 94.121,347.014 93.822 C 346.829 93.523,346.110 92.422,345.416 91.376 C 344.722 90.330,344.155 89.375,344.155 89.255 C 344.155 89.134,343.938 88.796,343.673 88.503 C 343.182 87.961,339.265 80.343,338.547 78.535 C 336.110 72.400,335.124 69.655,334.563 67.452 C 334.327 66.526,333.811 64.613,333.415 63.200 C 332.882 61.295,332.667 59.424,332.581 55.967 C 332.459 51.048,331.834 48.515,330.348 46.921 C 329.998 46.546,329.353 45.561,328.915 44.734 L 328.119 43.230 325.119 43.230 C 321.708 43.230,320.944 42.767,319.299 39.705 C 316.963 35.358,315.905 23.250,317.517 19.311 C 322.028 8.291,321.689 2.754,316.501 2.680 C 316.059 2.674,315.155 2.098,314.391 1.335 L 313.054 0.000 309.244 0.000 L 305.434 0.000 304.785 1.430 " stroke="none" fill="#049424" fill-rule="evenodd"></path><path id="path2" d="M134.414 209.167 C 134.563 211.526,134.863 213.296,135.278 214.256 C 135.627 215.066,135.913 215.891,135.913 216.089 C 135.913 216.726,137.683 219.096,140.605 222.372 C 142.173 224.130,143.613 225.768,143.805 226.012 C 143.997 226.257,144.404 226.733,144.708 227.070 C 145.013 227.408,145.467 228.059,145.717 228.518 C 145.968 228.977,146.466 229.863,146.824 230.488 C 149.364 234.923,145.573 241.543,140.787 241.030 C 138.999 240.839,138.438 240.904,137.679 241.392 C 136.684 242.032,134.567 244.079,134.567 244.402 C 134.567 244.510,133.513 245.615,132.225 246.858 C 128.163 250.776,127.787 253.417,130.683 257.696 C 131.246 258.528,131.821 259.260,131.960 259.322 C 132.553 259.585,132.123 261.093,130.928 262.942 C 130.222 264.035,129.461 265.458,129.236 266.106 C 128.411 268.481,128.029 269.001,125.779 270.816 C 122.122 273.765,121.518 275.740,123.657 277.757 C 124.318 278.380,125.044 278.890,125.271 278.890 C 126.268 278.890,131.106 282.610,134.518 286.000 C 136.913 288.379,139.575 288.899,142.897 287.636 C 145.043 286.821,145.948 286.793,146.974 287.512 C 147.404 287.813,148.233 288.180,148.815 288.327 C 152.472 289.250,157.780 291.790,157.780 292.617 C 157.780 292.748,156.977 293.630,155.995 294.578 C 154.832 295.700,154.067 296.779,153.799 297.673 C 153.573 298.427,153.189 299.244,152.946 299.487 C 152.702 299.731,152.325 300.262,152.108 300.669 C 150.869 302.984,145.255 309.167,144.393 309.167 C 143.886 309.167,142.304 311.146,142.304 311.781 C 142.304 312.890,139.602 314.967,138.460 314.736 C 133.623 313.755,132.321 314.231,132.679 316.845 C 132.984 319.070,135.589 321.907,142.930 328.011 L 144.061 328.951 143.921 331.591 C 143.662 336.497,141.174 339.259,138.385 337.735 C 136.976 336.965,136.882 336.958,134.994 337.456 C 131.387 338.407,129.184 337.479,129.184 335.007 C 129.184 333.525,129.319 333.570,126.940 334.262 C 125.202 334.767,124.914 334.758,121.842 334.102 C 120.052 333.720,117.904 333.324,117.069 333.221 C 116.018 333.093,115.221 332.727,114.480 332.035 C 112.848 330.510,111.122 330.839,110.370 332.819 C 110.152 333.391,109.698 333.776,109.095 333.901 C 106.510 334.437,105.397 335.012,103.324 336.880 C 102.097 337.986,101.033 339.046,100.958 339.237 C 100.884 339.427,100.548 339.878,100.211 340.239 C 99.405 341.105,98.710 343.473,97.892 348.149 C 96.422 356.545,93.440 358.341,77.460 360.458 C 72.692 361.089,68.210 364.745,67.446 368.623 C 67.210 369.824,68.104 373.423,68.638 373.423 C 68.818 373.423,68.966 373.644,68.966 373.913 C 68.966 374.183,69.626 374.791,70.433 375.264 C 71.768 376.046,71.918 376.268,72.090 377.717 C 72.543 381.522,74.134 383.358,77.823 384.335 C 86.735 386.697,94.919 395.985,89.151 397.191 C 85.219 398.013,84.654 398.183,84.522 398.580 C 84.423 398.877,85.024 398.991,86.683 398.991 L 88.982 398.992 88.982 400.253 C 88.982 400.946,88.884 401.665,88.764 401.850 C 87.130 404.363,88.463 407.287,91.084 406.940 C 93.579 406.609,94.401 407.458,95.720 411.731 C 97.117 416.256,98.651 415.739,101.916 409.642 C 106.003 402.010,109.926 400.614,117.410 404.129 C 122.711 406.619,124.487 410.140,123.791 416.785 C 123.158 422.845,123.402 425.178,125.026 428.595 C 125.774 430.168,126.586 431.985,126.832 432.632 C 127.078 433.280,127.384 433.961,127.512 434.146 C 128.129 435.035,128.310 437.017,128.326 443.061 L 128.343 449.622 129.748 451.885 C 132.208 455.850,132.330 459.133,130.270 465.938 C 129.733 467.711,129.394 469.661,129.378 471.071 C 129.361 472.604,129.229 473.297,128.975 473.200 C 128.767 473.121,127.859 472.962,126.956 472.847 C 125.228 472.626,120.017 471.450,114.807 470.104 C 113.098 469.663,111.395 469.302,111.022 469.302 C 110.650 469.302,110.345 469.106,110.345 468.866 C 110.345 468.017,106.922 464.948,105.724 464.723 C 105.093 464.605,103.698 463.921,102.624 463.204 C 100.348 461.684,100.159 461.652,99.489 462.658 C 99.212 463.074,98.476 463.662,97.853 463.965 C 95.470 465.123,92.442 466.274,91.778 466.274 C 90.921 466.274,87.093 467.917,86.609 468.492 C 86.414 468.724,85.316 469.230,84.170 469.616 C 81.979 470.354,80.740 471.179,80.740 471.900 C 80.740 472.516,78.377 474.793,76.836 475.662 C 75.374 476.486,74.145 479.590,73.761 483.426 C 73.587 485.169,72.981 486.522,69.139 493.754 C 68.924 494.159,68.173 495.143,67.471 495.941 C 66.263 497.314,64.979 499.721,63.185 503.980 C 62.376 505.898,61.192 507.496,60.029 508.237 C 59.408 508.634,58.537 509.117,55.804 510.584 C 51.274 513.014,51.032 515.106,54.995 517.574 C 57.061 518.860,60.219 521.939,60.219 522.667 C 60.219 523.413,59.232 524.765,57.078 526.968 C 52.880 531.266,51.309 534.762,52.565 537.010 C 53.109 537.983,53.499 538.256,54.357 538.262 C 55.830 538.273,60.181 543.472,60.211 545.259 C 60.215 545.496,59.613 546.246,58.873 546.927 C 57.197 548.468,57.194 548.696,58.850 548.696 C 60.155 548.696,62.574 550.840,62.574 551.997 C 62.574 553.714,66.959 554.462,69.638 553.203 C 73.058 551.595,72.861 551.600,74.230 553.080 C 74.909 553.814,75.680 554.415,75.941 554.415 C 76.458 554.415,80.871 557.632,81.874 558.740 C 82.933 559.911,81.012 565.517,79.551 565.517 C 79.184 565.517,78.172 566.598,76.164 569.134 C 75.687 569.735,75.137 570.227,74.941 570.227 C 73.257 570.227,69.823 576.372,68.979 580.896 C 68.682 582.487,66.673 586.006,65.884 586.319 C 65.729 586.381,65.601 586.622,65.601 586.856 C 65.601 587.089,65.277 587.568,64.881 587.921 C 62.701 589.860,62.023 593.978,63.242 597.867 C 63.726 599.412,63.914 600.974,63.922 603.532 C 63.932 606.442,64.062 607.332,64.660 608.579 C 65.278 609.868,65.419 610.941,65.610 615.812 C 65.931 623.994,67.581 629.875,71.509 636.838 C 72.288 638.219,71.955 639.801,69.988 644.071 C 69.477 645.181,68.959 646.316,68.838 646.594 C 68.633 647.066,68.122 647.862,65.881 651.209 C 64.531 653.225,62.741 654.463,59.207 655.827 C 54.116 657.792,52.198 659.125,50.952 661.564 C 50.001 663.428,48.914 664.464,47.572 664.788 C 44.337 665.569,39.889 666.442,39.149 666.442 C 37.735 666.442,33.851 668.169,33.050 669.154 C 31.150 671.490,31.962 673.114,35.772 674.600 C 36.728 674.973,38.343 675.572,39.361 675.931 C 42.814 677.150,43.138 677.615,43.256 681.532 C 43.312 683.393,43.511 685.202,43.699 685.551 C 43.968 686.055,43.800 686.550,42.884 687.940 L 41.730 689.693 41.675 694.558 L 41.620 699.422 43.182 700.897 C 44.041 701.709,44.743 702.469,44.743 702.588 C 44.743 702.707,45.029 703.110,45.378 703.485 C 46.449 704.634,47.476 707.840,47.776 710.967 C 47.933 712.604,48.136 714.017,48.226 714.108 C 48.508 714.390,50.913 714.870,52.088 714.878 C 52.705 714.883,54.370 715.286,55.789 715.775 C 64.731 718.853,66.287 723.162,60.449 728.681 C 52.827 735.885,52.650 736.220,54.325 740.286 C 54.782 741.396,55.160 742.802,55.164 743.410 C 55.175 744.922,55.999 746.054,57.651 746.828 C 58.416 747.187,59.278 747.678,59.567 747.920 C 60.130 748.391,63.367 754.861,64.609 757.999 L 65.361 759.900 64.598 761.135 C 64.178 761.814,63.513 762.516,63.120 762.695 C 57.887 765.072,55.317 768.777,54.850 774.618 C 54.539 778.499,54.132 779.459,52.353 780.509 C 51.081 781.259,49.947 783.127,49.607 785.029 C 49.475 785.770,48.872 787.662,48.267 789.235 C 45.428 796.618,45.262 803.028,47.909 803.028 C 49.572 803.028,50.428 802.623,52.145 801.024 C 54.655 798.686,57.696 798.424,61.480 800.220 L 63.246 801.059 63.246 803.171 C 63.246 808.163,65.051 808.882,68.937 805.436 C 72.109 802.624,74.453 801.101,80.235 798.099 C 80.606 797.907,81.287 797.547,81.749 797.298 C 82.212 797.049,83.045 796.608,83.600 796.318 C 85.566 795.290,88.141 793.546,88.141 793.243 C 88.141 793.074,88.308 792.935,88.511 792.935 C 90.495 792.935,93.147 787.258,93.695 781.833 C 93.916 779.656,94.636 776.891,95.317 775.610 C 96.314 773.734,97.271 770.238,97.539 767.496 C 97.728 765.557,98.097 763.923,98.541 763.052 C 98.927 762.295,99.243 761.484,99.243 761.249 C 99.243 760.668,102.948 754.584,103.302 754.584 C 103.620 754.584,104.457 752.837,104.753 751.556 C 104.860 751.093,104.707 749.751,104.412 748.574 C 103.701 745.725,103.964 744.468,105.842 741.744 L 107.416 739.461 107.209 737.245 C 107.038 735.417,107.118 734.813,107.664 733.794 C 108.028 733.114,108.341 731.951,108.360 731.208 C 108.411 729.157,108.698 728.515,110.351 726.761 C 112.027 724.982,112.781 723.581,113.321 721.246 C 113.657 719.792,115.262 717.578,115.979 717.578 C 116.153 717.578,116.570 717.275,116.905 716.905 C 117.240 716.535,117.665 716.232,117.850 716.232 C 118.036 716.232,118.683 715.854,119.290 715.391 C 119.896 714.929,120.516 714.550,120.667 714.550 C 121.423 714.549,124.857 711.371,125.677 709.913 C 127.713 706.290,136.903 704.824,143.146 707.125 C 144.256 707.535,145.514 707.954,145.941 708.057 C 147.821 708.510,148.198 714.650,146.543 717.851 C 145.747 719.390,145.847 721.659,146.762 722.825 C 147.765 724.104,149.453 725.630,149.877 725.642 C 150.064 725.647,150.400 725.946,150.624 726.305 C 151.425 727.587,153.966 728.749,156.363 728.929 C 157.806 729.038,158.863 729.307,159.294 729.676 C 161.387 731.471,168.147 731.285,170.920 729.357 C 176.915 725.189,182.085 720.053,182.322 718.033 C 182.495 716.564,182.590 716.437,183.844 716.004 C 186.167 715.201,187.048 713.890,187.048 711.234 C 187.048 708.613,187.032 708.586,183.263 704.827 C 179.870 701.442,179.899 698.327,183.353 695.201 C 183.720 694.869,184.020 694.469,184.020 694.313 C 184.020 694.157,184.285 693.758,184.609 693.427 C 184.933 693.096,185.655 692.301,186.214 691.661 C 189.556 687.830,191.977 686.521,193.045 687.965 C 195.409 691.163,199.832 690.380,199.832 686.763 C 199.832 685.076,198.234 681.657,197.088 680.890 C 196.172 680.277,196.393 677.616,197.453 676.507 C 199.906 673.941,195.054 669.283,192.415 671.671 C 191.895 672.142,191.752 672.113,190.855 671.358 C 190.312 670.902,189.002 670.145,187.943 669.677 C 185.744 668.704,185.335 668.356,184.448 666.701 C 184.096 666.044,183.195 664.771,182.447 663.872 C 181.698 662.973,180.835 661.747,180.528 661.149 C 179.574 659.285,177.069 659.246,173.244 661.035 C 169.217 662.919,169.191 662.914,166.168 659.754 C 161.914 655.307,161.399 653.485,163.892 651.705 C 164.825 651.039,164.639 650.681,163.246 650.467 C 161.553 650.206,158.498 648.613,158.261 647.867 C 158.156 647.537,157.932 647.267,157.762 647.267 C 157.146 647.267,155.319 643.000,154.666 640.038 C 153.384 634.225,153.697 628.764,155.956 617.459 C 156.404 615.220,156.772 613.025,156.774 612.581 C 156.782 610.724,159.995 601.511,160.811 601.007 C 161.706 600.454,163.162 596.581,163.162 594.752 C 163.162 591.740,163.742 589.366,164.839 587.889 C 165.821 586.568,169.554 579.232,169.554 578.625 C 169.554 577.935,173.150 570.627,173.822 569.951 C 174.065 569.706,174.264 569.381,174.264 569.228 C 174.264 568.100,185.176 557.443,186.331 557.443 C 186.522 557.443,186.799 557.246,186.947 557.004 C 187.095 556.763,188.151 555.916,189.294 555.123 C 191.977 553.260,194.203 550.443,196.500 546.005 C 197.686 543.715,199.558 536.541,199.969 532.717 C 200.068 531.791,200.456 529.083,200.832 526.698 C 201.207 524.313,201.516 521.891,201.518 521.316 C 201.524 520.085,203.528 511.596,204.386 509.167 C 204.713 508.242,205.336 506.538,205.770 505.379 C 206.205 504.221,206.560 503.108,206.560 502.907 C 206.560 502.705,206.772 502.064,207.031 501.481 C 207.290 500.898,207.987 499.285,208.579 497.897 C 209.171 496.510,209.816 495.073,210.012 494.705 C 211.580 491.752,214.298 486.247,214.298 486.022 C 214.298 485.869,214.689 484.883,215.166 483.831 C 217.304 479.123,217.742 478.186,218.025 477.712 C 218.192 477.435,218.618 476.678,218.972 476.030 C 219.326 475.383,220.241 474.179,221.004 473.356 C 221.768 472.533,222.316 471.661,222.223 471.419 C 222.130 471.176,222.362 470.790,222.739 470.560 C 223.375 470.173,225.736 467.178,225.736 466.760 C 225.736 466.109,229.536 461.672,231.313 460.248 C 233.110 458.808,239.865 451.266,239.865 450.700 C 239.865 450.601,240.164 450.166,240.529 449.734 C 240.894 449.302,241.735 448.267,242.399 447.435 C 247.518 441.011,248.064 440.582,250.799 440.842 C 254.619 441.205,255.712 439.825,255.941 434.354 C 256.108 430.352,256.634 429.268,258.408 429.268 C 259.429 429.268,260.379 428.228,260.398 427.091 C 260.406 426.629,260.972 426.083,262.155 425.399 C 264.287 424.167,265.433 422.566,265.433 420.820 C 265.433 419.169,266.024 418.839,269.975 418.286 C 278.560 417.085,277.667 417.625,277.194 413.918 C 276.430 407.941,276.829 408.575,274.283 409.283 C 271.196 410.141,271.097 402.697,274.118 396.804 C 274.402 396.249,274.760 395.530,274.912 395.206 C 275.187 394.621,275.496 394.023,276.511 392.103 C 276.801 391.552,277.203 390.947,277.402 390.757 C 277.601 390.567,278.257 389.769,278.860 388.982 C 279.462 388.196,280.103 387.553,280.283 387.553 C 280.762 387.553,283.263 385.480,283.263 385.084 C 283.263 384.898,283.026 384.484,282.736 384.164 C 281.263 382.536,289.218 373.759,292.167 373.759 C 292.603 373.759,293.356 375.153,293.356 375.962 C 293.356 376.291,293.720 376.451,294.467 376.451 C 295.800 376.451,297.729 374.676,297.729 373.449 C 297.729 373.019,298.335 371.760,299.075 370.652 C 299.815 369.543,300.418 368.313,300.414 367.918 C 300.403 366.632,298.758 360.883,298.237 360.306 C 297.382 359.362,297.650 358.713,299.701 356.760 C 300.785 355.728,301.877 354.475,302.127 353.977 C 302.660 352.914,304.716 350.407,307.026 348.002 C 312.671 342.125,310.069 334.665,303.110 336.773 C 302.463 336.969,301.065 337.260,300.003 337.420 C 298.940 337.580,297.653 337.918,297.143 338.171 C 296.114 338.681,294.854 338.289,294.291 337.283 C 293.417 335.720,292.010 337.143,292.010 339.591 C 292.010 340.948,291.924 341.127,291.271 341.127 C 290.461 341.127,287.973 339.546,287.973 339.032 C 287.973 338.855,287.684 338.343,287.331 337.894 C 283.130 332.553,282.576 311.411,286.271 297.393 C 286.831 295.265,287.460 292.843,287.668 292.010 C 289.119 286.202,290.808 282.080,294.216 276.030 C 295.514 273.725,297.421 269.817,297.745 268.797 C 297.983 268.047,299.311 264.428,300.606 261.001 C 300.863 260.321,301.380 259.261,301.755 258.646 C 302.130 258.031,302.437 257.262,302.438 256.939 C 302.438 256.615,302.572 256.350,302.734 256.350 C 302.896 256.350,303.354 255.631,303.750 254.752 C 304.147 253.873,304.914 252.397,305.455 251.472 C 305.996 250.547,306.863 249.050,307.382 248.145 C 308.453 246.280,308.527 246.162,310.355 243.398 C 311.090 242.288,311.767 241.228,311.860 241.043 C 311.953 240.858,312.635 239.816,313.374 238.727 C 314.113 237.638,314.870 236.502,315.055 236.204 C 315.240 235.905,315.479 235.585,315.586 235.492 C 315.693 235.399,316.452 234.340,317.273 233.137 C 318.094 231.934,319.369 230.112,320.106 229.088 C 320.843 228.064,321.598 226.986,321.783 226.693 C 322.993 224.777,325.516 221.121,325.884 220.750 C 326.126 220.505,326.325 220.089,326.325 219.825 C 326.325 219.560,326.441 219.344,326.582 219.344 C 326.798 219.344,328.008 217.709,329.521 215.375 C 329.706 215.089,330.039 214.616,330.260 214.324 C 331.643 212.504,333.946 209.407,334.230 208.985 C 334.415 208.711,335.058 207.940,335.659 207.271 C 337.025 205.750,337.028 205.481,335.676 205.614 C 334.443 205.734,332.785 207.777,326.441 216.989 C 324.465 219.857,320.455 225.630,317.529 229.818 C 305.716 246.726,300.316 256.217,297.075 265.770 C 296.479 267.527,294.920 271.009,293.612 273.507 C 292.303 276.005,290.755 278.957,290.172 280.067 C 288.462 283.325,287.731 285.414,285.935 292.178 C 282.760 304.131,282.537 305.462,282.349 313.606 C 281.912 332.526,285.216 342.817,291.595 342.407 L 293.188 342.304 293.290 340.706 C 293.407 338.889,293.443 338.864,294.610 339.781 C 295.680 340.623,296.732 340.637,297.768 339.824 C 298.582 339.185,302.618 338.389,305.450 338.309 C 306.797 338.272,307.025 338.382,307.721 339.411 C 309.356 341.827,308.661 343.846,304.754 348.024 C 303.197 349.689,301.525 351.733,301.038 352.566 C 300.551 353.399,299.476 354.697,298.648 355.450 C 296.224 357.657,295.748 359.424,297.017 361.505 C 297.363 362.074,297.915 363.780,298.243 365.298 L 298.839 368.056 297.611 369.839 C 296.936 370.820,296.384 371.918,296.384 372.279 C 296.384 374.100,295.087 374.810,294.297 373.421 C 292.069 369.506,280.771 378.290,280.848 383.878 C 280.864 385.045,280.708 385.300,279.404 386.236 C 277.360 387.704,275.395 390.462,273.312 394.786 C 268.953 403.834,269.125 410.765,273.708 410.765 L 275.128 410.765 275.529 413.142 C 276.020 416.049,276.926 415.537,268.966 416.851 C 264.841 417.532,263.751 418.397,263.751 420.989 C 263.751 422.146,262.281 423.765,260.796 424.243 C 259.040 424.809,258.705 425.158,258.705 426.418 C 258.705 427.420,258.574 427.564,257.285 427.975 C 255.033 428.693,254.453 429.869,254.264 434.103 C 254.050 438.918,253.669 439.506,250.969 439.193 C 247.475 438.787,245.907 440.102,238.711 449.473 C 236.233 452.700,233.092 456.261,230.420 458.873 C 227.378 461.846,225.570 463.938,224.247 466.015 C 222.984 467.998,222.116 469.017,221.574 469.153 C 219.991 469.550,215.405 466.603,208.915 461.018 C 184.376 439.898,176.749 434.297,171.909 433.839 C 164.947 433.179,163.624 433.539,162.322 436.445 C 161.734 437.758,160.993 438.616,159.294 439.950 C 155.940 442.583,155.741 442.489,152.895 436.932 C 151.921 435.030,150.424 432.111,149.570 430.446 C 148.715 428.780,147.714 426.217,147.345 424.748 C 146.526 421.491,146.156 420.903,143.869 419.213 C 142.745 418.382,141.921 417.467,141.667 416.765 C 139.943 412.009,137.339 408.509,132.956 405.053 C 131.529 403.929,129.756 402.423,129.016 401.707 C 128.276 400.992,126.838 399.848,125.820 399.167 C 124.802 398.485,122.796 396.814,121.362 395.454 L 118.755 392.981 118.755 389.274 C 118.755 387.235,118.938 384.765,119.161 383.784 C 119.848 380.767,119.719 373.512,118.949 371.800 C 118.373 370.520,118.345 370.133,118.693 368.276 C 118.909 367.129,119.055 364.601,119.018 362.658 C 118.917 357.372,119.822 356.029,126.058 352.206 C 132.971 347.967,134.393 344.771,131.355 340.294 L 130.507 339.046 131.850 339.272 C 132.595 339.398,134.011 339.316,135.027 339.089 C 136.714 338.711,136.952 338.736,138.024 339.398 C 140.744 341.079,143.559 339.169,145.108 334.591 C 146.478 330.542,145.745 328.105,142.304 325.271 C 133.824 318.286,132.129 315.264,137.231 316.227 C 140.257 316.798,142.758 315.404,143.671 312.638 C 143.903 311.934,144.576 311.149,145.482 310.526 C 148.397 308.520,155.425 299.810,155.425 298.203 C 155.425 297.933,156.347 296.721,157.474 295.510 C 159.665 293.155,159.844 292.361,158.517 290.889 C 157.940 290.249,152.809 287.637,152.129 287.637 C 151.916 287.637,150.598 287.183,149.201 286.627 C 146.187 285.430,144.725 285.374,141.562 286.335 C 138.536 287.254,138.348 287.168,133.073 282.449 C 130.580 280.219,128.155 278.384,126.681 277.611 C 123.289 275.834,123.302 275.341,126.830 272.161 C 129.531 269.726,130.530 268.390,130.530 267.212 C 130.530 266.877,131.228 265.562,132.082 264.290 C 134.310 260.969,134.346 260.081,132.374 257.201 C 129.699 253.293,129.838 251.697,133.143 248.316 C 134.389 247.042,136.132 245.208,137.018 244.241 L 138.628 242.481 140.784 242.712 C 143.437 242.996,144.849 242.425,146.484 240.409 C 151.267 234.508,150.266 230.558,141.544 220.923 C 137.392 216.337,136.444 214.145,135.734 207.485 C 135.559 205.846,135.425 205.551,134.857 205.551 C 134.213 205.551,134.195 205.702,134.414 209.167 M9.749 334.315 C 9.745 335.378,9.423 337.611,9.034 339.277 C 8.644 340.942,8.222 343.137,8.095 344.155 C 7.788 346.630,6.434 350.812,5.537 352.061 C 5.138 352.616,4.089 354.357,3.206 355.929 C 2.323 357.502,1.241 359.271,0.800 359.860 C -0.308 361.343,-0.364 366.867,0.697 370.113 C 1.953 373.958,2.350 376.585,2.002 378.747 C 0.975 385.121,1.397 386.207,4.900 386.207 L 6.981 386.207 7.431 388.238 C 7.679 389.356,7.999 390.453,8.141 390.677 C 8.508 391.255,10.222 389.367,10.732 387.822 C 11.098 386.712,11.644 386.207,12.475 386.207 C 12.645 386.207,12.784 386.352,12.784 386.528 C 12.784 386.705,13.174 387.424,13.651 388.126 C 14.543 389.439,14.563 389.773,13.957 393.272 C 13.783 394.270,13.909 394.619,14.782 395.563 C 16.154 397.048,16.086 397.572,14.298 399.327 C 12.602 400.991,12.350 402.217,13.346 403.952 C 13.958 405.020,13.527 405.791,11.800 406.715 C 9.796 407.788,11.200 409.330,15.475 410.750 C 17.233 411.334,20.020 412.485,21.669 413.307 C 23.318 414.130,24.870 414.802,25.118 414.802 C 25.365 414.802,25.569 414.916,25.570 415.055 C 25.573 415.396,27.520 416.484,28.126 416.484 C 28.394 416.484,28.756 416.863,28.932 417.325 C 29.264 418.198,29.519 418.307,30.418 417.962 C 31.005 417.737,31.146 416.309,30.614 415.980 C 30.065 415.640,30.226 415.204,31.075 414.737 C 31.513 414.495,32.487 413.959,33.238 413.546 C 35.047 412.551,35.256 412.133,34.326 411.380 C 32.635 410.010,33.750 408.218,37.493 406.294 C 39.751 405.133,42.950 403.701,43.292 403.699 C 43.443 403.697,44.009 403.465,44.551 403.183 C 45.384 402.748,45.816 402.733,47.372 403.081 C 49.795 403.623,50.637 402.830,50.293 400.327 C 49.916 397.583,51.375 395.428,53.506 395.582 C 55.078 395.696,55.429 395.208,55.420 392.921 C 55.414 391.363,55.296 390.998,54.704 390.705 C 50.767 388.758,48.991 387.193,49.806 386.390 C 51.066 385.148,52.244 384.838,53.000 385.548 L 53.709 386.214 56.544 383.316 C 58.102 381.721,59.718 380.103,60.135 379.719 C 60.551 379.335,60.892 378.821,60.892 378.577 C 60.892 378.333,61.040 378.133,61.221 378.133 C 61.726 378.133,62.911 375.587,62.899 374.530 C 62.886 373.392,62.586 373.006,60.215 371.086 C 55.079 366.926,49.701 361.085,47.815 357.617 C 45.263 352.925,45.264 352.687,47.841 349.909 C 51.082 346.415,50.838 343.808,47.178 342.834 C 42.853 341.684,41.641 341.435,39.529 341.263 C 36.411 341.009,29.810 339.266,24.390 337.267 C 23.280 336.857,21.842 336.330,21.194 336.095 C 20.547 335.860,18.806 335.222,17.325 334.676 C 13.865 333.401,10.712 332.390,10.177 332.384 C 9.889 332.382,9.754 332.993,9.749 334.315 M113.929 333.726 C 114.626 334.338,115.452 334.735,116.029 334.735 C 116.552 334.735,118.529 335.051,120.422 335.437 C 122.316 335.823,124.671 336.088,125.656 336.026 L 127.447 335.913 127.845 337.242 C 128.064 337.973,128.909 339.834,129.723 341.377 C 132.193 346.061,131.901 346.687,125.153 351.175 C 117.910 355.992,117.251 357.114,117.227 364.676 C 117.218 367.174,117.181 369.548,117.142 369.952 C 117.104 370.356,115.896 371.946,114.458 373.485 C 113.020 375.024,111.447 376.812,110.963 377.460 C 110.480 378.108,109.307 379.470,108.357 380.488 C 105.940 383.077,105.441 384.185,104.335 389.414 C 102.867 396.353,102.447 396.669,96.954 394.974 C 95.119 394.408,93.371 393.944,93.071 393.944 C 92.764 393.944,92.308 393.428,92.032 392.767 C 90.476 389.044,84.047 384.354,78.217 382.690 C 75.352 381.872,74.493 380.932,73.812 377.869 C 73.504 376.486,73.007 375.145,72.707 374.888 C 72.407 374.631,71.612 373.969,70.940 373.418 C 69.420 372.170,68.806 370.161,69.345 368.207 C 70.383 364.447,73.642 362.725,82.422 361.295 C 95.504 359.165,97.946 357.277,99.593 348.024 C 100.662 342.016,104.220 336.536,107.438 335.942 C 110.545 335.368,110.857 335.223,111.661 333.978 C 112.639 332.464,112.508 332.479,113.929 333.726 M20.072 337.444 C 29.518 340.813,33.316 341.875,39.750 342.943 C 49.556 344.571,49.966 344.943,46.444 349.011 C 43.745 352.130,43.551 353.175,45.123 356.134 C 47.855 361.276,52.342 366.557,58.430 371.794 L 61.571 374.496 60.811 375.876 C 59.567 378.131,53.936 383.818,53.149 383.612 C 51.049 383.063,48.108 384.949,48.108 386.846 C 48.108 388.163,49.905 390.227,51.796 391.080 C 53.478 391.838,53.478 391.971,51.790 393.497 C 49.602 395.473,48.618 397.442,48.671 399.739 C 48.720 401.872,48.932 401.739,46.354 401.195 C 45.731 401.064,44.502 401.391,42.494 402.222 C 33.655 405.881,30.864 408.157,31.899 410.863 C 32.276 411.850,32.245 411.986,31.547 412.441 C 31.126 412.715,30.310 413.399,29.732 413.962 L 28.683 414.984 25.695 413.456 C 21.805 411.466,17.477 409.609,15.055 408.892 C 12.798 408.223,12.827 408.281,14.130 407.065 C 15.247 406.021,15.433 404.730,14.741 402.816 C 14.357 401.755,14.400 401.654,15.918 400.031 C 17.978 397.829,17.956 396.053,15.843 394.141 C 15.191 393.551,15.174 393.436,15.641 392.724 C 16.928 390.760,15.028 385.405,12.793 384.696 C 11.884 384.407,10.038 385.341,9.305 386.461 L 8.701 387.384 8.889 386.498 C 9.157 385.231,8.478 384.828,5.644 384.575 L 3.196 384.357 3.278 382.843 C 3.662 375.781,3.540 373.616,2.589 370.563 C 1.184 366.053,0.998 362.402,2.099 360.931 C 2.565 360.308,3.669 358.511,4.552 356.939 C 5.435 355.366,6.499 353.625,6.917 353.070 C 8.100 351.497,10.210 343.358,10.929 337.595 C 11.299 334.624,11.412 334.316,12.041 334.561 C 12.357 334.683,15.971 335.981,20.072 337.444 M118.124 373.448 C 118.847 376.036,118.264 382.697,116.985 386.470 C 116.302 388.483,116.295 388.630,116.839 389.550 C 117.167 390.104,117.410 391.218,117.410 392.165 C 117.410 394.708,118.343 395.759,124.042 399.632 C 130.439 403.981,137.946 412.590,139.760 417.662 C 140.699 420.287,141.494 421.090,143.923 421.867 C 145.831 422.477,145.976 422.995,145.171 426.306 C 144.337 429.739,144.831 430.908,149.707 437.028 C 151.155 438.846,152.446 440.682,152.575 441.108 C 153.678 444.741,156.517 444.188,162.273 439.220 C 169.809 432.716,166.991 431.651,191.590 450.300 C 197.140 454.509,205.789 461.040,210.808 464.815 L 219.934 471.678 218.189 474.284 C 217.230 475.718,215.699 478.627,214.787 480.750 C 213.876 482.872,211.937 487.031,210.479 489.992 C 203.913 503.326,200.849 513.212,199.324 525.988 C 197.205 543.735,194.858 548.875,185.772 555.672 C 176.280 562.771,171.990 568.137,168.201 577.647 C 166.489 581.945,165.431 584.042,163.794 586.387 C 162.450 588.311,162.084 589.642,161.648 594.175 C 161.522 595.485,161.125 596.986,160.699 597.769 C 156.758 605.006,156.023 607.194,154.581 615.980 C 154.293 617.738,153.734 620.690,153.340 622.540 C 150.686 634.995,153.686 648.379,159.745 651.111 L 161.087 651.717 160.907 653.463 C 160.658 655.877,161.546 657.482,165.154 661.143 C 168.633 664.671,168.848 664.713,173.422 662.759 C 178.339 660.658,177.893 660.597,180.261 663.700 C 181.389 665.180,182.783 667.155,183.357 668.089 C 184.219 669.490,184.795 669.977,186.650 670.874 C 187.887 671.471,189.396 672.384,190.003 672.902 C 191.270 673.981,192.103 674.075,193.434 673.289 C 194.392 672.723,194.685 672.821,196.765 674.396 C 196.836 674.450,196.403 675.053,195.802 675.737 C 194.359 677.380,194.450 679.612,196.063 682.117 C 198.785 686.348,199.044 687.537,197.370 688.123 C 196.175 688.542,194.903 687.892,194.114 686.459 C 192.832 684.131,189.980 685.366,185.281 690.284 C 177.949 697.958,177.352 701.441,182.506 706.476 C 186.440 710.320,186.758 712.977,183.444 714.304 C 181.732 714.990,180.972 715.906,180.752 717.551 C 180.509 719.355,173.221 726.279,169.582 728.160 C 166.956 729.519,160.807 729.915,160.807 728.726 C 160.807 728.174,158.744 727.334,157.389 727.334 C 155.065 727.334,154.045 726.886,150.978 724.519 C 147.241 721.634,147.214 721.556,148.355 717.093 C 150.511 708.664,149.395 706.727,141.433 705.083 C 133.320 703.408,124.138 705.645,124.138 709.297 C 124.138 710.033,121.900 711.859,118.201 714.143 C 116.324 715.302,114.176 716.914,113.428 717.724 C 112.200 719.057,111.861 719.816,111.228 722.649 C 111.122 723.125,110.141 724.526,109.049 725.763 C 107.071 728.004,106.644 728.985,106.644 731.289 C 106.644 731.938,106.329 732.978,105.945 733.601 C 105.341 734.578,105.277 735.036,105.481 736.940 C 105.710 739.073,105.682 739.190,104.648 740.476 C 102.582 743.048,102.205 745.088,102.998 749.394 C 103.341 751.254,103.319 751.611,102.820 752.293 C 98.186 758.622,96.209 763.143,95.762 768.439 C 95.627 770.030,95.115 771.796,94.011 774.475 C 92.785 777.449,92.392 778.882,92.179 781.150 C 91.415 789.302,89.764 791.211,78.217 797.296 C 73.560 799.751,70.516 801.771,67.992 804.084 C 65.165 806.675,64.929 806.646,64.929 803.716 C 64.929 799.783,63.485 798.450,58.318 797.611 C 55.136 797.095,53.900 797.376,51.931 799.063 C 49.530 801.118,49.354 801.245,48.558 801.487 C 47.033 801.951,47.501 795.642,49.335 791.012 C 49.791 789.862,50.615 787.477,51.166 785.713 C 51.717 783.950,52.309 782.506,52.481 782.506 C 54.418 782.506,56.255 778.988,56.543 774.727 C 56.676 772.761,56.972 770.793,57.201 770.354 C 58.171 768.488,60.151 766.526,62.767 764.837 C 67.807 761.586,67.810 759.596,62.783 750.042 C 61.089 746.823,60.925 746.631,58.978 745.589 C 56.963 744.511,56.940 744.482,56.708 742.730 C 56.579 741.756,56.181 740.296,55.823 739.486 C 54.624 736.772,55.302 735.509,60.254 731.233 C 65.041 727.101,66.625 723.258,64.920 719.917 C 63.308 716.756,56.029 713.233,51.063 713.210 C 49.471 713.203,49.241 712.759,49.050 709.329 C 48.857 705.842,47.852 703.621,45.091 700.574 L 42.995 698.261 43.220 694.211 C 43.425 690.496,43.524 690.043,44.405 688.757 C 45.497 687.160,45.626 686.602,45.281 684.943 C 45.146 684.295,45.003 682.554,44.962 681.075 C 44.846 676.859,43.950 675.887,38.183 673.720 C 31.067 671.045,32.564 669.235,43.486 667.312 C 49.534 666.248,50.024 666.007,51.891 663.173 C 53.880 660.154,54.825 659.389,58.248 658.029 C 65.391 655.191,67.169 653.513,70.901 646.087 C 73.846 640.228,73.994 638.128,71.777 633.719 C 68.677 627.554,67.469 622.612,67.155 614.798 C 67.032 611.753,66.770 609.757,66.294 608.238 C 65.852 606.827,65.608 605.119,65.606 603.406 C 65.603 601.903,65.293 599.444,64.890 597.726 C 64.450 595.851,64.238 594.074,64.336 593.062 C 64.495 591.405,64.658 591.116,68.452 585.783 C 69.276 584.625,70.123 583.035,70.334 582.251 C 71.602 577.549,72.105 576.215,73.310 574.349 C 74.074 573.168,75.227 571.912,75.990 571.430 C 76.726 570.965,77.792 569.912,78.357 569.091 C 78.922 568.269,79.937 567.256,80.611 566.839 C 82.862 565.447,84.868 559.533,83.582 558.080 C 82.493 556.851,78.123 553.474,77.303 553.229 C 76.880 553.102,75.985 552.409,75.312 551.689 C 73.765 550.030,72.371 549.961,69.479 551.398 C 66.164 553.045,65.511 552.810,62.376 548.836 C 61.423 547.627,61.349 547.353,61.480 545.500 C 61.702 542.338,58.718 538.283,55.034 536.744 C 52.629 535.739,53.539 533.474,58.665 527.705 C 63.090 522.726,62.805 521.154,56.672 516.727 C 52.995 514.072,53.008 514.024,58.200 511.176 C 62.737 508.688,63.506 507.760,65.956 501.805 C 66.557 500.345,67.460 498.680,67.963 498.104 C 71.157 494.449,75.553 485.665,75.812 482.422 C 76.099 478.837,76.509 477.907,78.316 476.747 C 80.152 475.569,81.460 474.256,82.151 472.896 C 82.520 472.170,83.170 471.761,84.927 471.147 C 86.188 470.706,87.541 470.054,87.933 469.698 C 88.325 469.342,90.387 468.479,92.515 467.780 C 96.739 466.393,99.678 465.116,100.261 464.413 C 100.566 464.046,100.924 464.147,102.204 464.959 C 103.068 465.506,104.382 466.118,105.125 466.318 C 106.575 466.708,108.999 468.990,108.999 469.965 C 108.999 470.818,129.475 475.427,130.471 474.798 C 130.839 474.566,130.981 473.778,131.009 471.808 C 131.036 469.900,131.368 467.978,132.169 465.097 C 133.975 458.599,133.878 456.246,131.620 451.769 L 129.850 448.260 129.938 442.381 C 130.038 435.671,130.025 435.614,126.913 428.606 L 125.050 424.412 125.321 419.355 C 125.886 408.820,124.647 405.857,118.364 402.717 C 110.355 398.715,105.453 400.401,100.449 408.879 C 97.845 413.291,97.841 413.292,96.861 410.002 C 95.766 406.325,94.193 404.875,91.626 405.177 C 89.786 405.393,89.746 405.380,89.946 404.634 C 90.058 404.213,90.153 403.604,90.155 403.280 C 90.158 402.886,90.424 402.691,90.960 402.691 C 92.549 402.691,93.069 400.635,91.674 399.866 C 91.304 399.662,90.944 399.464,90.875 399.425 C 90.806 399.387,91.133 398.899,91.603 398.340 C 92.073 397.782,92.558 396.867,92.681 396.307 C 92.965 395.017,93.198 395.029,97.155 396.525 C 103.321 398.856,104.457 397.943,105.769 389.605 C 106.462 385.202,106.786 384.539,108.690 383.635 C 110.419 382.814,110.905 382.179,111.964 379.359 C 112.710 377.372,116.848 372.338,117.569 372.540 C 117.748 372.591,117.998 372.999,118.124 373.448 M148.119 431.422 C 148.492 432.144,148.620 432.625,148.404 432.491 C 147.852 432.151,146.337 429.078,146.363 428.354 C 146.376 427.998,146.599 428.232,146.913 428.932 C 147.203 429.579,147.746 430.700,148.119 431.422 " stroke="none" fill="#fafafa" fill-rule="evenodd"></path><path id="path3" d="M184.750 205.130 C 212.628 205.178,258.347 205.178,286.348 205.130 C 314.349 205.083,291.539 205.044,235.660 205.044 C 179.781 205.044,156.872 205.083,184.750 205.130 " stroke="none" fill="#1c9c2c" fill-rule="evenodd"></path><path id="path4" d="M184.750 205.467 C 212.628 205.514,258.347 205.514,286.348 205.467 C 314.349 205.419,291.539 205.380,235.660 205.380 C 179.781 205.380,156.872 205.419,184.750 205.467 " stroke="none" fill="#88bc84" fill-rule="evenodd"></path></g></svg>