<?xml version="1.0" standalone="no"?>
<!DOCTYPE svg PUBLIC "-//W3C//DTD SVG 20010904//EN"
 "http://www.w3.org/TR/2001/REC-SVG-20010904/DTD/svg10.dtd">
<svg version="1.0" xmlns="http://www.w3.org/2000/svg"
 width="920.000000pt" height="512.000000pt" viewBox="0 0 920.000000 512.000000"
 preserveAspectRatio="xMidYMid meet">

<g transform="translate(0.000000,512.000000) scale(0.100000,-0.100000)"
fill="#000000" stroke="none">
<path d="M2895 4841 c-141 -38 -254 -103 -362 -209 -108 -106 -177 -225 -214
-371 -18 -71 -19 -136 -19 -1701 0 -1592 0 -1628 20 -1705 70 -275 300 -505
575 -575 75 -19 112 -20 892 -20 l813 0 0 870 0 870 -280 0 -280 0 0 384 0
383 279 -1 279 -1 4 230 c5 207 8 240 31 327 96 361 371 644 690 709 30 6 205
12 405 13 l352 3 1 -66 c1 -36 2 -209 3 -383 l1 -318 -313 0 c-346 0 -360 -2
-404 -61 -42 -57 -48 -91 -48 -278 l0 -176 380 0 380 1 1 -26 c1 -14 2 -186 3
-382 l1 -358 -382 0 -383 0 0 -870 0 -870 453 0 c415 0 460 2 529 19 279 72
508 301 578 578 20 77 20 110 18 1728 l-3 1650 -31 88 c-86 238 -263 415 -501
501 l-88 31 -1655 2 c-1582 2 -1658 1 -1725 -16z"/>
</g>
</svg>
