<?xml version="1.0" standalone="no"?>
<!DOCTYPE svg PUBLIC "-//W3C//DTD SVG 20010904//EN"
 "http://www.w3.org/TR/2001/REC-SVG-20010904/DTD/svg10.dtd">
<svg version="1.0" xmlns="http://www.w3.org/2000/svg"
 width="920.000000pt" height="540.000000pt" viewBox="0 0 920.000000 540.000000"
 preserveAspectRatio="xMidYMid meet">

<g transform="translate(0.000000,540.000000) scale(0.100000,-0.100000)"
fill="#000000" stroke="none">
<path d="M4380 4939 c-326 -31 -681 -151 -955 -324 -594 -374 -972 -967 -1054
-1654 -15 -121 -15 -400 -1 -521 30 -246 105 -502 215 -726 36 -73 65 -136 65
-142 0 -6 -67 -259 -150 -563 -82 -304 -148 -554 -147 -555 1 -2 265 59 586
135 l584 138 111 -53 c305 -144 623 -215 966 -215 622 0 1188 239 1616 683
331 344 538 763 611 1238 24 160 24 491 0 650 -94 605 -404 1118 -899 1487
-371 277 -868 437 -1342 432 -67 -1 -159 -5 -206 -10z m-390 -1224 c12 -11 31
-38 43 -60 36 -71 197 -469 197 -487 0 -34 -48 -112 -119 -197 -41 -48 -71
-92 -71 -105 0 -25 68 -138 133 -224 149 -193 348 -354 557 -450 121 -55 142
-61 173 -48 26 11 125 121 200 224 21 29 49 55 62 58 36 9 80 -8 332 -131 260
-127 250 -117 241 -228 -8 -94 -36 -179 -76 -233 -44 -57 -165 -142 -248 -174
-70 -27 -192 -38 -288 -27 -133 15 -424 111 -591 194 -316 158 -606 437 -879
843 -244 363 -257 696 -37 956 83 99 118 115 247 111 86 -2 105 -5 124 -22z"/>
</g>
</svg>
