<?xml version="1.0" standalone="no"?>
<!DOCTYPE svg PUBLIC "-//W3C//DTD SVG 20010904//EN"
 "http://www.w3.org/TR/2001/REC-SVG-20010904/DTD/svg10.dtd">
<svg version="1.0" xmlns="http://www.w3.org/2000/svg"
 width="512.000000pt" height="512.000000pt" viewBox="0 0 512.000000 512.000000"
 preserveAspectRatio="xMidYMid meet">

<g transform="translate(0.000000,512.000000) scale(0.100000,-0.100000)"
fill="#000000" stroke="none">
<path d="M603 4299 c-17 -5 -41 -21 -52 -35 -20 -26 -21 -38 -21 -443 0 -460
-2 -449 64 -476 42 -18 78 -9 113 27 l28 29 3 350 3 349 1220 0 1219 0 0
-1240 0 -1240 -444 0 -444 0 -30 -25 c-35 -30 -45 -69 -27 -111 28 -67 -12
-64 733 -64 l674 0 29 29 c38 39 40 97 5 138 -24 27 -27 28 -153 33 l-128 5
-3 998 -2 997 419 0 419 0 341 -282 341 -282 0 -577 c0 -317 -3 -637 -6 -711
l-7 -136 -67 -4 c-76 -6 -114 -26 -129 -69 -15 -43 -3 -85 31 -114 28 -24 35
-25 163 -25 146 0 178 8 200 50 19 37 34 1607 16 1662 -10 32 -72 86 -399 358
-255 211 -399 324 -422 330 -20 6 -215 10 -467 10 l-433 0 0 195 c0 208 -5
232 -49 262 -24 17 -104 18 -1366 20 -801 1 -1353 -2 -1372 -8z"/>
<path d="M3644 3322 c-43 -35 -44 -42 -44 -516 l0 -456 29 -32 29 -33 453 -3
c321 -2 461 1 481 9 60 25 63 38 66 334 2 149 1 294 -3 324 -8 62 -11 65 -233
264 l-144 127 -306 0 c-276 0 -309 -2 -328 -18z m676 -298 l130 -116 0 -209 0
-209 -320 0 -320 0 0 325 0 325 190 0 190 0 130 -116z"/>
<path d="M473 3230 c-34 -20 -53 -66 -45 -107 7 -37 50 -71 95 -78 23 -3 326
-5 672 -3 693 3 659 0 691 66 18 39 7 87 -27 118 -20 18 -52 19 -688 22 -647
2 -667 2 -698 -18z"/>
<path d="M270 2763 c-23 -12 -39 -30 -48 -55 -13 -33 -12 -41 4 -75 11 -21 29
-43 41 -49 16 -7 235 -13 673 -18 583 -6 654 -5 684 9 54 26 75 91 46 144 -25
48 -25 48 -715 55 -610 6 -652 5 -685 -11z"/>
<path d="M63 2286 c-68 -31 -80 -121 -22 -170 l31 -26 659 0 c467 0 667 3 682
11 63 32 76 107 28 161 l-29 33 -659 2 c-546 2 -663 0 -690 -11z"/>
<path d="M594 1995 c-62 -26 -64 -36 -64 -288 l0 -229 29 -29 29 -29 191 0
c121 0 199 4 215 11 33 15 59 71 51 109 -3 16 -18 40 -32 54 -25 25 -30 26
-148 26 l-123 0 -3 160 -4 160 -30 29 c-37 36 -71 44 -111 26z"/>
<path d="M1513 1734 c-29 -8 -76 -28 -105 -45 -271 -158 -320 -513 -101 -732
93 -94 197 -137 333 -137 358 0 569 368 401 698 -29 56 -120 146 -179 176
-110 56 -238 70 -349 40z m221 -208 c51 -21 117 -86 139 -135 26 -59 26 -153
0 -212 -57 -129 -209 -187 -338 -130 -65 29 -102 64 -131 126 -63 133 -1 289
138 350 43 18 149 19 192 1z"/>
<path d="M4048 1731 c-126 -41 -229 -129 -285 -247 -126 -263 10 -562 296
-650 59 -18 193 -18 252 0 151 47 271 163 315 306 78 254 -70 529 -321 595
-78 20 -186 18 -257 -4z m253 -218 c194 -99 181 -386 -20 -470 -54 -23 -151
-20 -204 6 -64 31 -122 98 -141 162 -20 66 -20 82 0 148 44 150 223 225 365
154z"/>
</g>
</svg>
